Preview_RobotoExtremo-wght_100.00_wdth_75.00_opsz_24.00_GRAD_0.00_XTRA_468.00_XOPQ_96.00_YOPQ_79.00.ufo
<glyph name="exclam" format="2">
  <advance width="477"/>
  <unicode hex="0021"/>
  <outline>
    <contour>
      <point x="186.7261538461538" y="52.115384615384606" type="qcurve" smooth="yes"/>
      <point x="186.7261538461538" y="82.4076923076923"/>
      <point x="214.0553846153846" y="124.84615384615384"/>
      <point x="238.61538461538458" y="124.84615384615384" type="qcurve" smooth="yes"/>
      <point x="263.43846153846147" y="124.84615384615384"/>
      <point x="289.5046153846154" y="82.4076923076923"/>
      <point x="289.5046153846154" y="52.115384615384606" type="qcurve" smooth="yes"/>
      <point x="289.5046153846154" y="21.9"/>
      <point x="263.4384615384615" y="-20.53846153846154"/>
      <point x="238.53846153846155" y="-20.53846153846154" type="qcurve" smooth="yes"/>
      <point x="214.0553846153846" y="-20.53846153846154"/>
      <point x="186.7261538461538" y="21.9"/>
    </contour>
    <contour>
      <point x="215.2569230769231" y="381.143076923077" type="line"/>
      <point x="211.07846153846154" y="1456.0" type="line"/>
      <point x="265.2292307692308" y="1456.0" type="line"/>
      <point x="260.46769230769235" y="381.143076923077" type="line"/>
    </contour>
  </outline>
</glyph>
<glyph name="parenright" format="2">
  <advance width="553"/>
  <unicode hex="0029"/>
  <outline>
    <contour>
      <point x="76.53846153846153" y="-436.0" type="qcurve"/>
      <point x="76.23076923076923" y="-391.83538461538467" type="line"/>
      <point x="193.5523076923077" y="-316.6169230769231"/>
      <point x="378.9261538461538" y="82.00615384615385"/>
      <point x="378.9261538461538" y="508.0" type="qcurve" smooth="yes"/>
      <point x="378.9261538461538" y="532.0" type="line" smooth="yes"/>
      <point x="378.9261538461538" y="940.3107692307693"/>
      <point x="193.6292307692307" y="1355.6938461538462"/>
      <point x="76.15384615384615" y="1430.9892307692307" type="qcurve"/>
      <point x="76.53846153846153" y="1476.0" type="line"/>
      <point x="224.81692307692308" y="1394.1092307692306"/>
      <point x="435.2923076923078" y="923.0969230769231"/>
      <point x="435.2923076923078" y="525.0" type="qcurve" smooth="yes"/>
      <point x="435.2923076923078" y="515.0" type="line" smooth="yes"/>
      <point x="435.2923076923078" y="95.43076923076923"/>
      <point x="224.81692307692308" y="-354.10923076923075"/>
    </contour>
  </outline>
</glyph>
<glyph name="period" format="2">
  <advance width="427"/>
  <unicode hex="002E"/>
  <outline>
    <contour>
      <point x="161.55999999999997" y="53.63384615384614" type="qcurve" smooth="yes"/>
      <point x="161.55999999999997" y="84.0646153846154"/>
      <point x="189.22615384615386" y="127.2353846153846"/>
      <point x="214.82923076923075" y="127.2353846153846" type="qcurve" smooth="yes"/>
      <point x="239.16923076923075" y="127.2353846153846"/>
      <point x="265.41846153846154" y="84.0646153846154"/>
      <point x="265.41846153846154" y="52.63384615384616" type="qcurve" smooth="yes"/>
      <point x="265.41846153846154" y="22.78615384615384"/>
      <point x="239.01538461538465" y="-20.46153846153846"/>
      <point x="213.7523076923077" y="-20.46153846153846" type="qcurve" smooth="yes"/>
      <point x="188.9953846153846" y="-20.46153846153846"/>
      <point x="161.55999999999997" y="22.86307692307692"/>
    </contour>
  </outline>
</glyph>
<glyph name="slash" format="2">
  <advance width="403"/>
  <unicode hex="002F"/>
  <outline>
    <contour>
      <point x="-83.64615384615385" y="-119.0" type="line"/>
      <point x="433.0738461538461" y="1456.0" type="line"/>
      <point x="488.1569230769231" y="1456.0" type="line"/>
      <point x="-28.78769230769231" y="-119.0" type="line"/>
    </contour>
  </outline>
</glyph>
<glyph name="six" format="2">
  <advance width="985"/>
  <unicode hex="0036"/>
  <outline>
    <contour>
      <point x="137" y="614" type="qcurve" smooth="yes"/>
      <point x="137" y="644" type="line" smooth="yes"/>
      <point x="137" y="1034"/>
      <point x="452" y="1484"/>
      <point x="712" y="1484" type="qcurve" smooth="yes"/>
      <point x="730" y="1484" type="line"/>
      <point x="730" y="1430" type="line"/>
      <point x="712" y="1430" type="line" smooth="yes"/>
      <point x="491" y="1430"/>
      <point x="191" y="1029"/>
      <point x="191" y="652" type="qcurve" smooth="yes"/>
      <point x="191" y="605" type="line" smooth="yes"/>
      <point x="191" y="282"/>
      <point x="389" y="25"/>
      <point x="533" y="25" type="qcurve" smooth="yes"/>
      <point x="655" y="25"/>
      <point x="818" y="250"/>
      <point x="818" y="463" type="qcurve" smooth="yes"/>
      <point x="818" y="661"/>
      <point x="650" y="864"/>
      <point x="534" y="864" type="qcurve" smooth="yes"/>
      <point x="417" y="864"/>
      <point x="188" y="624"/>
      <point x="188" y="464" type="qcurve"/>
      <point x="156" y="464" type="line"/>
      <point x="156" y="664"/>
      <point x="409" y="918"/>
      <point x="541" y="918" type="qcurve" smooth="yes"/>
      <point x="683" y="918"/>
      <point x="873" y="677"/>
      <point x="873" y="463" type="qcurve" smooth="yes"/>
      <point x="873" y="233"/>
      <point x="689" y="-28"/>
      <point x="533" y="-28" type="qcurve" smooth="yes"/>
      <point x="367" y="-28"/>
      <point x="137" y="264"/>
    </contour>
  </outline>
</glyph>
<glyph name="nine" format="2">
  <advance width="975"/>
  <unicode hex="0039"/>
  <outline>
    <contour>
      <point x="112" y="993" type="qcurve" smooth="yes"/>
      <point x="112" y="1223"/>
      <point x="296" y="1484"/>
      <point x="452" y="1484" type="qcurve" smooth="yes"/>
      <point x="620" y="1484"/>
      <point x="849" y="1193"/>
      <point x="849" y="842" type="qcurve" smooth="yes"/>
      <point x="849" y="812" type="line" smooth="yes"/>
      <point x="849" y="422"/>
      <point x="533" y="-28"/>
      <point x="274" y="-28" type="qcurve" smooth="yes"/>
      <point x="255" y="-28" type="line"/>
      <point x="255" y="26" type="line"/>
      <point x="274" y="26" type="line" smooth="yes"/>
      <point x="494" y="26"/>
      <point x="794" y="427"/>
      <point x="794" y="804" type="qcurve" smooth="yes"/>
      <point x="794" y="851" type="line" smooth="yes"/>
      <point x="794" y="1175"/>
      <point x="596" y="1431"/>
      <point x="452" y="1431" type="qcurve" smooth="yes"/>
      <point x="330" y="1431"/>
      <point x="168" y="1206"/>
      <point x="168" y="993" type="qcurve" smooth="yes"/>
      <point x="168" y="795"/>
      <point x="335" y="592"/>
      <point x="451" y="592" type="qcurve" smooth="yes"/>
      <point x="568" y="592"/>
      <point x="798" y="831"/>
      <point x="797" y="992" type="qcurve"/>
      <point x="830" y="992" type="line"/>
      <point x="831" y="792"/>
      <point x="576" y="538"/>
      <point x="443" y="538" type="qcurve" smooth="yes"/>
      <point x="301" y="538"/>
      <point x="112" y="779"/>
    </contour>
  </outline>
</glyph>
<glyph name="semicolon" format="2">
  <advance width="455"/>
  <unicode hex="003B"/>
  <outline>
    <contour>
      <point x="159.92769230769233" y="-138.12769230769229" type="line"/>
      <point x="183.88923076923078" y="-98.39384615384613"/>
      <point x="208.51538461538462" y="-11.124615384615383"/>
      <point x="208.0538461538461" y="47.676923076923075" type="qcurve" smooth="yes"/>
      <point x="207.9" y="137.60923076923078" type="line"/>
      <point x="277.96153846153845" y="137.68615384615384" type="line"/>
      <point x="278.11538461538464" y="48.753846153846155" type="line" smooth="yes"/>
      <point x="278.5769230769231" y="-23.358461538461537"/>
      <point x="242.87692307692302" y="-124.27538461538461"/>
      <point x="207.81384615384613" y="-167.30461538461532" type="qcurve"/>
    </contour>
    <contour>
      <point x="174.78307692307692" y="975.9646153846153" type="qcurve" smooth="yes"/>
      <point x="174.78307692307692" y="1006.1892307692308"/>
      <point x="202.06923076923078" y="1049.2307692307695"/>
      <point x="226.8753846153846" y="1049.2307692307695" type="qcurve" smooth="yes"/>
      <point x="252.02153846153846" y="1049.2307692307695"/>
      <point x="278.96769230769235" y="1006.1892307692308"/>
      <point x="278.96769230769235" y="975.9646153846153" type="qcurve" smooth="yes"/>
      <point x="278.96769230769235" y="945.7399999999999"/>
      <point x="252.0215384615384" y="902.6984615384615"/>
      <point x="226.79846153846154" y="902.6984615384615" type="qcurve" smooth="yes"/>
      <point x="201.91538461538462" y="902.6984615384615"/>
      <point x="174.78307692307692" y="945.74"/>
    </contour>
  </outline>
</glyph>
<glyph name="K" format="2">
  <advance width="915"/>
  <unicode hex="004B"/>
  <outline>
    <contour>
      <point x="167.87692307692313" y="0.0" type="line"/>
      <point x="167.87692307692313" y="1456.0" type="line"/>
      <point x="222.3676923076923" y="1456.0" type="line"/>
      <point x="222.3676923076923" y="645.8415384615387" type="line"/>
      <point x="859.7369230769232" y="1456.0" type="line"/>
      <point x="912.3338461538461" y="1456.0" type="line"/>
      <point x="223.17999999999998" y="576.8876923076922" type="line"/>
      <point x="223.17999999999998" y="0.0" type="line"/>
    </contour>
    <contour>
      <point x="865.0323076923078" y="0.0" type="line"/>
      <point x="358.41384615384607" y="796.1692307692309" type="line"/>
      <point x="387.9292307692308" y="838.9276923076924" type="line"/>
      <point x="917.0230769230769" y="0.0" type="line"/>
    </contour>
  </outline>
</glyph>
<glyph name="M" format="2">
  <advance width="1352"/>
  <unicode hex="004D"/>
  <outline>
    <contour>
      <point x="167.87692307692313" y="0.0" type="line"/>
      <point x="167.87692307692313" y="1456.0" type="line"/>
      <point x="239.06153846153845" y="1456.0" type="line"/>
      <point x="632.0076923076925" y="198.89999999999995" type="line" smooth="yes"/>
      <point x="642.5015384615384" y="166.51538461538465"/>
      <point x="670.9507692307694" y="74.43846153846154"/>
      <point x="676.8292307692308" y="37.130769230769225" type="qcurve"/>
      <point x="682.7076923076921" y="37.130769230769225" type="line"/>
      <point x="690.0923076923079" y="74.43846153846154"/>
      <point x="712.76" y="166.51538461538462"/>
      <point x="722.9138461538464" y="198.89999999999995" type="qcurve" smooth="yes"/>
      <point x="1116.9723076923076" y="1456.0" type="line"/>
      <point x="1183.5261538461536" y="1456.0" type="line"/>
      <point x="1183.5261538461536" y="0.0" type="line"/>
      <point x="1128.643076923077" y="0.0" type="line"/>
      <point x="1128.643076923077" y="1191.0369230769231" type="line" smooth="yes"/>
      <point x="1128.643076923077" y="1224.3446153846153"/>
      <point x="1133.4061538461538" y="1306.4984615384615"/>
      <point x="1136.1753846153845" y="1338.883076923077" type="qcurve"/>
      <point x="1128.5030769230768" y="1338.883076923077" type="line"/>
      <point x="1123.2523076923076" y="1306.4984615384615"/>
      <point x="1093.7907692307692" y="1224.869230769231"/>
      <point x="1083.636923076923" y="1191.2215384615388" type="qcurve" smooth="yes"/>
      <point x="706.6399999999999" y="0.0" type="line"/>
      <point x="649.3076923076924" y="0.0" type="line"/>
      <point x="258.91230769230765" y="1191.036923076923" type="line" smooth="yes"/>
      <point x="247.39230769230767" y="1224.3446153846155"/>
      <point x="228.45384615384614" y="1306.4984615384615"/>
      <point x="223.5430769230769" y="1338.883076923077" type="qcurve"/>
      <point x="214.60769230769228" y="1338.883076923077" type="line"/>
      <point x="218.29999999999998" y="1306.4984615384615"/>
      <point x="222.47999999999993" y="1224.3446153846157"/>
      <point x="222.47999999999993" y="1191.036923076923" type="qcurve" smooth="yes"/>
      <point x="222.47999999999993" y="0.0" type="line"/>
    </contour>
  </outline>
</glyph>
<glyph name="Q" format="2">
  <advance width="1051"/>
  <unicode hex="0051"/>
  <outline>
    <contour>
      <point x="116.33846153846156" y="655.0815384615383" type="qcurve" smooth="yes"/>
      <point x="116.33846153846156" y="800.6876923076924" type="line" smooth="yes"/>
      <point x="116.33846153846156" y="1125.333846153846"/>
      <point x="339.21999999999997" y="1484.076923076923"/>
      <point x="527.6830769230769" y="1484.076923076923" type="qcurve" smooth="yes"/>
      <point x="715.9984615384615" y="1484.076923076923"/>
      <point x="933.8707692307692" y="1125.333846153846"/>
      <point x="933.8707692307692" y="800.6876923076924" type="qcurve" smooth="yes"/>
      <point x="933.8707692307692" y="655.0815384615383" type="line" smooth="yes"/>
      <point x="933.8707692307692" y="331.3584615384616"/>
      <point x="715.9984615384615" y="-28.0"/>
      <point x="527.6830769230769" y="-28.0" type="qcurve" smooth="yes"/>
      <point x="339.14307692307693" y="-28.0"/>
      <point x="116.33846153846156" y="331.5892307692309"/>
    </contour>
    <contour>
      <point x="171.88153846153847" y="655.6199999999999" type="line" smooth="yes"/>
      <point x="171.88153846153847" y="354.7523076923077"/>
      <point x="360.6646153846154" y="25.573846153846144"/>
      <point x="527.6830769230771" y="25.573846153846144" type="qcurve" smooth="yes"/>
      <point x="694.6307692307691" y="25.573846153846144"/>
      <point x="877.7446153846154" y="354.8292307692307"/>
      <point x="877.7446153846154" y="655.4661538461537" type="qcurve" smooth="yes"/>
      <point x="877.7446153846154" y="800.303076923077" type="line" smooth="yes"/>
      <point x="877.7446153846154" y="1101.8630769230767"/>
      <point x="694.630769230769" y="1430.503076923077"/>
      <point x="527.6830769230769" y="1430.503076923077" type="qcurve" smooth="yes"/>
      <point x="360.8507692307693" y="1430.503076923077"/>
      <point x="171.88153846153847" y="1101.8630769230767"/>
      <point x="171.88153846153847" y="800.303076923077" type="qcurve" smooth="yes"/>
    </contour>
    <contour>
      <point x="934.7492307692307" y="-201.25846153846155" type="line"/>
      <point x="478.13692307692304" y="204.43230769230772" type="line"/>
      <point x="518.0292307692306" y="243.2276923076923" type="line"/>
      <point x="973.7769230769234" y="-159.28615384615387" type="line"/>
    </contour>
  </outline>
</glyph>
<glyph name="R" format="2">
  <advance width="876"/>
  <unicode hex="0052"/>
  <outline>
    <contour>
      <point x="167.87692307692313" y="0.0" type="line"/>
      <point x="167.87692307692313" y="1456.0" type="line"/>
      <point x="453.01538461538473" y="1456.0" type="line" smooth="yes"/>
      <point x="619.7799999999999" y="1456.0"/>
      <point x="780.2984615384615" y="1238.7138461538464"/>
      <point x="780.2984615384615" y="1052.2215384615388" type="qcurve" smooth="yes"/>
      <point x="780.2984615384615" y="867.0369230769231"/>
      <point x="619.7030769230769" y="647.6461538461539"/>
      <point x="453.40000000000015" y="647.6461538461539" type="qcurve" smooth="yes"/>
      <point x="223.1030769230769" y="647.6461538461539" type="line"/>
      <point x="223.41076923076923" y="0.0" type="line"/>
    </contour>
    <contour>
      <point x="223.17999999999998" y="701.4799999999998" type="line"/>
      <point x="453.09230769230777" y="701.4799999999998" type="line" smooth="yes"/>
      <point x="604.0584449064447" y="701.4799999999998"/>
      <point x="724.3123076923077" y="897.2984615384617"/>
      <point x="724.3123076923077" y="1052.2215384615388" type="qcurve" smooth="yes"/>
      <point x="724.3123076923077" y="1212.9292307692308"/>
      <point x="590.0415218295219" y="1403.0892307692304"/>
      <point x="452.7846153846155" y="1403.0892307692304" type="qcurve" smooth="yes"/>
      <point x="223.17999999999998" y="1403.0892307692304" type="line"/>
    </contour>
    <contour>
      <point x="768.68" y="0.0" type="line"/>
      <point x="461.52461538461534" y="671.8461538461539" type="line"/>
      <point x="517.8630769230768" y="672.0" type="line"/>
      <point x="830.7553846153846" y="0.0" type="line"/>
    </contour>
  </outline>
</glyph>
<glyph name="T" format="2">
  <advance width="839"/>
  <unicode hex="0054"/>
  <outline>
    <contour>
      <point x="22.307692307692307" y="1400.1184615384618" type="line"/>
      <point x="22.307692307692307" y="1456.0" type="line"/>
      <point x="817.2953846153846" y="1456.0" type="line"/>
      <point x="817.2953846153846" y="1400.1184615384618" type="line"/>
      <point x="446.69999999999993" y="1400.1184615384618" type="line"/>
      <point x="446.69999999999993" y="0.0" type="line"/>
      <point x="392.32" y="0.0" type="line"/>
      <point x="392.32" y="1400.1184615384618" type="line"/>
    </contour>
  </outline>
</glyph>
<glyph name="X" format="2">
  <advance width="923"/>
  <unicode hex="0058"/>
  <outline>
    <contour>
      <point x="33.276923076923076" y="0.0" type="line"/>
      <point x="445.1492307692309" y="767.0799999999999" type="line"/>
      <point x="449.19076923076915" y="767.3876923076922" type="line"/>
      <point x="812.2692307692307" y="1456.0" type="line"/>
      <point x="869.4846153846155" y="1456.0" type="line"/>
      <point x="479.38769230769225" y="714.073846153846" type="line"/>
      <point x="477.1923076923076" y="713.7661538461538" type="line"/>
      <point x="90.49230769230769" y="0.0" type="line"/>
    </contour>
    <contour>
      <point x="55.29230769230771" y="1456.0" type="line"/>
      <point x="116.25538461538463" y="1456.0" type="line"/>
      <point x="479.57384615384615" y="767.3876923076925" type="line"/>
      <point x="480.9938461538461" y="766.9261538461541" type="line"/>
      <point x="891.4230769230771" y="0.0" type="line"/>
      <point x="829.1969230769229" y="0.0" type="line"/>
      <point x="445.88615384615383" y="713.6892307692308" type="line"/>
      <point x="444.4661538461538" y="714.2276923076923" type="line"/>
    </contour>
  </outline>
</glyph>
<glyph name="k" format="2">
  <advance width="731"/>
  <unicode hex="006B"/>
  <outline>
    <contour>
      <point x="143.55384615384614" y="0.0" type="line"/>
      <point x="143.55384615384614" y="1529.8461538461538" type="line"/>
      <point x="198.43692307692308" y="1529.8461538461538" type="line"/>
      <point x="198.43692307692308" y="542.9" type="line"/>
      <point x="616.0184615384616" y="1041.3846153846155" type="line"/>
      <point x="691.2646153846154" y="1041.3846153846155" type="line"/>
      <point x="198.14153846153846" y="454.04461538461544" type="line"/>
      <point x="198.14153846153846" y="1.7692307692307694" type="line"/>
    </contour>
    <contour>
      <point x="669.4030769230768" y="0.0" type="line"/>
      <point x="294.08" y="571.2276923076922" type="line"/>
      <point x="330.4107692307693" y="646.0692307692306" type="line"/>
      <point x="738.4307692307694" y="0.0" type="line"/>
    </contour>
  </outline>
</glyph>
<glyph name="m" format="2">
  <advance width="1245"/>
  <unicode hex="006D"/>
  <outline>
    <contour>
      <point x="143.55384615384614" y="0.0" type="line"/>
      <point x="143.55384615384614" y="1041.3846153846155" type="line"/>
      <point x="194.55846153846153" y="1041.3846153846155" type="line"/>
      <point x="194.97846153846157" y="912.3215384615387" type="line"/>
      <point x="194.5969230769231" y="912.3215384615387" type="line"/>
      <point x="236.12923076923073" y="981.9953846153845"/>
      <point x="359.5784615384616" y="1060.3076923076924"/>
      <point x="437.9753846153846" y="1060.3076923076924" type="qcurve" smooth="yes"/>
      <point x="516.7353846153849" y="1060.3076923076924"/>
      <point x="624.9076923076922" y="973.2199999999999"/>
      <point x="643.2784615384618" y="895.4784615384613" type="qcurve"/>
      <point x="642.7046153846154" y="895.4784615384613" type="line"/>
      <point x="678.6770235327576" y="967.2358165862174"/>
      <point x="813.6589743589742" y="1060.3846153846155"/>
      <point x="896.4461538461541" y="1060.3846153846155" type="qcurve" smooth="yes"/>
      <point x="991.5972944297081" y="1060.3846153846155"/>
      <point x="1111.8615384615377" y="926.123076923077"/>
      <point x="1111.8615384615377" y="768.9523076923077" type="qcurve" smooth="yes"/>
      <point x="1111.8615384615377" y="0.0" type="line"/>
      <point x="1056.978461538461" y="0.0" type="line"/>
      <point x="1056.978461538461" y="770.6446153846153" type="line" smooth="yes"/>
      <point x="1055.612307692307" y="896.8584615384615"/>
      <point x="962.0553846153846" y="1007.4738461538464"/>
      <point x="877.6307692307693" y="1007.4738461538464" type="qcurve" smooth="yes"/>
      <point x="802.3384615384615" y="1007.4738461538464"/>
      <point x="691.3799999999997" y="910.4969230769228"/>
      <point x="655.1492307692309" y="837.5476923076923" type="qcurve"/>
      <point x="655.1492307692309" y="0.0" type="line"/>
      <point x="600.2661538461539" y="0.0" type="line"/>
      <point x="600.2661538461539" y="770.6446153846153" type="line" smooth="yes"/>
      <point x="598.9000000000002" y="896.8584615384616"/>
      <point x="504.42" y="1007.4738461538464"/>
      <point x="419.99538461538464" y="1007.4738461538464" type="qcurve" smooth="yes"/>
      <point x="345.2861538461538" y="1007.4738461538464"/>
      <point x="233.7446153846154" y="910.496923076923"/>
      <point x="198.43692307692308" y="837.5476923076923" type="qcurve"/>
      <point x="198.43692307692308" y="0.0" type="line"/>
    </contour>
  </outline>
</glyph>
<glyph name="n" format="2">
  <advance width="815"/>
  <unicode hex="006E"/>
  <anchor x="495.0769230769231" y="1041.3846153846155" name="top"/>
  <outline>
    <contour>
      <point x="143.55384615384614" y="0.0" type="line"/>
      <point x="143.55384615384614" y="1041.3846153846155" type="line"/>
      <point x="194.55846153846153" y="1041.3846153846155" type="line"/>
      <point x="195.31846153846155" y="910.2815384615383" type="line"/>
      <point x="194.2569230769231" y="910.2815384615383" type="line"/>
      <point x="236.80615384615373" y="981.3153846153845"/>
      <point x="370.8219679633867" y="1060.3846153846155"/>
      <point x="453.32615384615394" y="1060.3846153846155" type="qcurve" smooth="yes"/>
      <point x="556.4553846153843" y="1060.3846153846155"/>
      <point x="680.0707692307693" y="924.4499471520845"/>
      <point x="680.0707692307693" y="765.2123076923077" type="qcurve" smooth="yes"/>
      <point x="680.0707692307693" y="0.0" type="line"/>
      <point x="625.5276923076924" y="0.0" type="line"/>
      <point x="625.5276923076924" y="766.9046153846155" type="line" smooth="yes"/>
      <point x="625.5276923076924" y="896.1611980360063"/>
      <point x="523.7096584093872" y="1007.4738461538464"/>
      <point x="431.94615384615395" y="1007.4738461538464" type="qcurve" smooth="yes"/>
      <point x="352.82008594757195" y="1007.4738461538464"/>
      <point x="234.86986080440255" y="910.2810957021478"/>
      <point x="198.43692307692308" y="835.1676923076923" type="qcurve"/>
      <point x="198.43692307692308" y="0.0" type="line"/>
    </contour>
  </outline>
</glyph>
<glyph name="r" format="2">
  <advance width="523"/>
  <unicode hex="0072"/>
  <outline>
    <contour>
      <point x="143.55384615384614" y="0.0" type="line"/>
      <point x="143.55384615384614" y="1041.3846153846155" type="line"/>
      <point x="194.55846153846156" y="1041.3846153846155" type="line"/>
      <point x="194.97846153846157" y="921.2184615384615" type="line"/>
      <point x="194.52" y="921.2184615384615" type="line"/>
      <point x="229.97026138922928" y="981.9633040613509"/>
      <point x="343.10006537371976" y="1069.6153846153845"/>
      <point x="420.5246153846153" y="1069.6153846153845" type="qcurve" smooth="yes"/>
      <point x="441.46307692307687" y="1069.6153846153845"/>
      <point x="484.103076923077" y="1060.0769230769229"/>
      <point x="493.2323076923077" y="1056.2307692307693" type="qcurve"/>
      <point x="493.2323076923077" y="1004.4353846153847" type="line"/>
      <point x="474.9353846153846" y="1008.3584615384616"/>
      <point x="435.5523076923077" y="1015.5492307692306"/>
      <point x="412.69692307692316" y="1015.5492307692306" type="qcurve" smooth="yes"/>
      <point x="342.68523076923077" y="1015.5492307692306"/>
      <point x="228.7488308875181" y="915.8267894701116"/>
      <point x="198.43692307692308" y="841.4892307692309" type="qcurve"/>
      <point x="198.43692307692308" y="0.0" type="line"/>
    </contour>
  </outline>
</glyph>
<glyph name="t" format="2">
  <advance width="477"/>
  <unicode hex="0074"/>
  <outline>
    <contour>
      <point x="5.440000000000001" y="988.9661538461539" type="line"/>
      <point x="5.440000000000001" y="1041.3846153846155" type="line"/>
      <point x="425.5784615384615" y="1041.3846153846155" type="line"/>
      <point x="425.5784615384615" y="988.9661538461539" type="line"/>
    </contour>
    <contour>
      <point x="168.83230769230775" y="248.69230769230762" type="qcurve" smooth="yes"/>
      <point x="168.83230769230775" y="1009.5692307692307" type="line"/>
      <point x="168.83230769230775" y="1020.7815384615384" type="line"/>
      <point x="168.83230769230775" y="1293.5384615384614" type="line"/>
      <point x="223.71538461538458" y="1293.5384615384614" type="line"/>
      <point x="223.71538461538458" y="248.99999999999994" type="line" smooth="yes"/>
      <point x="223.71538461538458" y="127.8676923076923"/>
      <point x="279.6507692307693" y="24.995384615384616"/>
      <point x="340.1184615384615" y="24.995384615384616" type="qcurve" smooth="yes"/>
      <point x="360.44615384615395" y="24.995384615384616"/>
      <point x="398.07538461538473" y="35.70769230769231"/>
      <point x="415.7292307692308" y="44.24615384615383" type="qcurve"/>
      <point x="415.88307692307694" y="-8.163076923076924" type="line"/>
      <point x="400.21833261112977" y="-15.867252994865387"/>
      <point x="355.95623147494706" y="-28.076923076923077"/>
      <point x="328.3153846153845" y="-28.076923076923077" type="qcurve" smooth="yes"/>
      <point x="254.034008097166" y="-28.076923076923077"/>
      <point x="168.83230769230775" y="105.15384615384615"/>
    </contour>
  </outline>
</glyph>
<glyph name="dieresis" format="2">
  <advance width="964"/>
  <unicode hex="00A8"/>
  <anchor x="423.0" y="1577.0" name="mkmktop_acc"/>
  <outline>
    <contour>
      <point x="206.3846153846154" y="1261.5384615384617" type="qcurve" smooth="yes"/>
      <point x="206.3846153846154" y="1291.6153846153848"/>
      <point x="244.00000000000003" y="1333.9999999999995"/>
      <point x="279.7692307692308" y="1333.9999999999995" type="qcurve" smooth="yes"/>
      <point x="316.46153846153845" y="1333.9999999999995"/>
      <point x="354.15384615384613" y="1291.6153846153848"/>
      <point x="354.15384615384613" y="1261.5384615384617" type="qcurve" smooth="yes"/>
      <point x="354.15384615384613" y="1231.4615384615386"/>
      <point x="316.46153846153845" y="1190.0"/>
      <point x="279.7692307692308" y="1190.0" type="qcurve" smooth="yes"/>
      <point x="244.00000000000003" y="1190.0"/>
      <point x="206.3846153846154" y="1231.4615384615386"/>
    </contour>
    <contour>
      <point x="609.8461538461539" y="1259.6153846153848" type="qcurve" smooth="yes"/>
      <point x="609.8461538461539" y="1289.7692307692307"/>
      <point x="647.4615384615387" y="1332.1538461538457"/>
      <point x="683.3076923076923" y="1332.1538461538457" type="qcurve" smooth="yes"/>
      <point x="719.0769230769229" y="1332.1538461538457"/>
      <point x="757.6153846153845" y="1289.7692307692307"/>
      <point x="757.6153846153845" y="1259.6153846153848" type="qcurve" smooth="yes"/>
      <point x="757.6153846153845" y="1229.5384615384617"/>
      <point x="719.0769230769229" y="1188.1538461538462"/>
      <point x="683.3076923076923" y="1188.1538461538462" type="qcurve" smooth="yes"/>
      <point x="647.4615384615387" y="1188.1538461538462"/>
      <point x="609.8461538461539" y="1229.5384615384617"/>
    </contour>
  </outline>
</glyph>
<glyph name="macron" format="2">
  <advance width="964"/>
  <unicode hex="00AF"/>
  <anchor x="473.0" y="1577.0" name="mkmktop_acc"/>
  <outline>
    <contour>
      <point x="745.6923076923077" y="1341.3846153846157" type="line"/>
      <point x="745.6923076923077" y="1256.923076923077" type="line"/>
      <point x="218.76923076923077" y="1256.923076923077" type="line"/>
      <point x="218.76923076923077" y="1341.3846153846157" type="line"/>
    </contour>
  </outline>
</glyph>
<glyph name="onesuperior" format="2">
  <advance width="578"/>
  <unicode hex="00B9"/>
  <outline>
    <contour>
      <point x="75.07692307692308" y="1287.3846153846152" type="line"/>
      <point x="74.84615384615384" y="1370.1538461538464" type="line"/>
      <point x="345.46153846153845" y="1483.6923076923076" type="line"/>
      <point x="368.9999999999999" y="1483.6923076923076" type="line"/>
      <point x="368.9999999999999" y="693.3846153846155" type="line"/>
      <point x="290.07692307692304" y="693.3846153846155" type="line"/>
      <point x="290.07692307692304" y="1372.3846153846157" type="line"/>
    </contour>
  </outline>
</glyph>
<glyph name="dotaccent" format="2">
  <advance width="964"/>
  <unicode hex="02D9"/>
  <anchor x="250.0" y="1572.0" name="mkmktop_acc"/>
  <outline>
    <contour>
      <point x="401.15384615384625" y="1286.461538461538" type="qcurve" smooth="yes"/>
      <point x="401.15384615384625" y="1315.769230769231"/>
      <point x="445.53846153846143" y="1365.7692307692307"/>
      <point x="482.3846153846154" y="1365.7692307692307" type="qcurve" smooth="yes"/>
      <point x="518.3076923076923" y="1365.7692307692307"/>
      <point x="563.6153846153846" y="1315.769230769231"/>
      <point x="563.6153846153846" y="1286.461538461538" type="qcurve" smooth="yes"/>
      <point x="563.6153846153846" y="1256.2307692307688"/>
      <point x="518.3076923076923" y="1207.1538461538462"/>
      <point x="482.3846153846154" y="1207.1538461538462" type="qcurve" smooth="yes"/>
      <point x="445.53846153846143" y="1207.1538461538462"/>
      <point x="401.15384615384625" y="1256.2307692307688"/>
    </contour>
  </outline>
</glyph>
<glyph name="ring" format="2">
  <advance width="964"/>
  <unicode hex="02DA"/>
  <anchor x="336.0" y="1693.0" name="mkmktop_acc"/>
  <outline>
    <contour>
      <point x="277.69230769230774" y="1365.384615384616" type="qcurve"/>
      <point x="277.69230769230774" y="1451.0"/>
      <point x="400.6153846153847" y="1575.923076923077"/>
      <point x="484.3846153846153" y="1575.923076923077" type="qcurve" smooth="yes"/>
      <point x="568.1538461538461" y="1575.923076923077"/>
      <point x="688.3076923076923" y="1451.0"/>
      <point x="688.3076923076923" y="1365.384615384616" type="qcurve" smooth="yes"/>
      <point x="688.3076923076923" y="1278.8461538461538"/>
      <point x="568.1538461538461" y="1157.8461538461538"/>
      <point x="484.3846153846153" y="1157.8461538461538" type="qcurve" smooth="yes"/>
      <point x="400.6153846153847" y="1157.8461538461538"/>
      <point x="277.69230769230774" y="1278.8461538461538"/>
    </contour>
    <contour>
      <point x="349.1538461538462" y="1365.384615384616" type="qcurve"/>
      <point x="349.1538461538462" y="1308.6153846153848"/>
      <point x="429.30769230769226" y="1232.1538461538464"/>
      <point x="484.3846153846153" y="1232.1538461538464" type="qcurve" smooth="yes"/>
      <point x="540.3846153846154" y="1232.1538461538464"/>
      <point x="615.9230769230769" y="1308.6923076923083"/>
      <point x="615.9230769230769" y="1365.384615384616" type="qcurve" smooth="yes"/>
      <point x="615.9230769230769" y="1423.0000000000005"/>
      <point x="540.3846153846154" y="1501.6923076923078"/>
      <point x="484.3846153846153" y="1501.6923076923078" type="qcurve" smooth="yes"/>
      <point x="429.30769230769226" y="1501.6923076923078"/>
      <point x="349.1538461538462" y="1423.0000000000005"/>
    </contour>
  </outline>
</glyph>
<glyph name="hookabovecomb" format="2">
  <advance width="964"/>
  <unicode hex="0309"/>
  <outline>
    <contour>
      <point x="423.07692307692304" y="1133.1538461538462" type="line"/>
      <point x="423.07692307692304" y="1170.230769230769" type="line" smooth="yes"/>
      <point x="423.07692307692304" y="1218.7692307692307"/>
      <point x="478.46153846153845" y="1283.4615384615383"/>
      <point x="550.1538461538462" y="1293.6153846153845" type="qcurve" smooth="yes"/>
      <point x="607.0" y="1301.0"/>
      <point x="648.6923076923076" y="1334.1538461538462"/>
      <point x="648.6923076923076" y="1375.3846153846155" type="qcurve" smooth="yes"/>
      <point x="648.6923076923076" y="1414.6153846153845"/>
      <point x="590.2307692307692" y="1450.8461538461538"/>
      <point x="536.923076923077" y="1450.8461538461538" type="qcurve" smooth="yes"/>
      <point x="475.53846153846155" y="1450.8461538461538"/>
      <point x="366.9230769230769" y="1419.076923076923"/>
      <point x="356.53846153846155" y="1411.076923076923" type="qcurve"/>
      <point x="306.46153846153845" y="1526.923076923077" type="line"/>
      <point x="339.9230769230769" y="1545.076923076923"/>
      <point x="487.3076923076923" y="1584.3846153846152"/>
      <point x="565.5384615384615" y="1584.3846153846152" type="qcurve" smooth="yes"/>
      <point x="680.2307692307693" y="1584.3846153846152"/>
      <point x="799.7692307692308" y="1475.6153846153845"/>
      <point x="799.7692307692308" y="1383.6923076923078" type="qcurve" smooth="yes"/>
      <point x="799.7692307692308" y="1286.923076923077"/>
      <point x="676.6923076923077" y="1173.0"/>
      <point x="537.1538461538462" y="1162.8461538461538" type="qcurve"/>
      <point x="537.1538461538462" y="1133.1538461538462" type="line"/>
    </contour>
  </outline>
</glyph>
<glyph name="horizontalbar" format="2">
  <advance width="624"/>
  <unicode hex="2015"/>
  <outline>
    <contour>
      <point x="19.23076923076923" y="634.4615384615385" type="line"/>
      <point x="19.23076923076923" y="788.3076923076923" type="line"/>
      <point x="588.0769230769231" y="788.3076923076923" type="line"/>
      <point x="588.0769230769231" y="634.4615384615385" type="line"/>
    </contour>
  </outline>
</glyph>
<glyph name="brevecomb.case" format="2">
  <advance width="964"/>
  <outline>
    <contour>
      <point x="758.6153846153846" y="1907.538461538461" type="qcurve"/>
      <point x="828.3846153846151" y="1864.8461538461538" type="line"/>
      <point x="782.3076923076925" y="1760.2307692307688"/>
      <point x="610.0000000000002" y="1627.2307692307693"/>
      <point x="482.2307692307692" y="1627.2307692307693" type="qcurve" smooth="yes"/>
      <point x="369.6153846153846" y="1627.2307692307693"/>
      <point x="182.46153846153845" y="1756.1538461538464"/>
      <point x="137.0" y="1865.8461538461538" type="qcurve"/>
      <point x="204.0" y="1916.7692307692307" type="line"/>
      <point x="248.53846153846158" y="1835.923076923077"/>
      <point x="391.0769230769231" y="1722.846153846154"/>
      <point x="481.3076923076922" y="1722.846153846154" type="qcurve" smooth="yes"/>
      <point x="580.2307692307692" y="1722.846153846154"/>
      <point x="707.9230769230769" y="1811.9230769230767"/>
    </contour>
  </outline>
</glyph>
<glyph name="caroncomb.alt" format="2">
  <advance width="964"/>
  <outline>
    <contour>
      <point x="389.0769230769231" y="1082.0" type="line"/>
      <point x="491.5384615384616" y="1465.4615384615383" type="line"/>
      <point x="596.7692307692308" y="1431.9999999999998" type="line"/>
      <point x="448.07692307692304" y="1062.2307692307693" type="line"/>
    </contour>
  </outline>
</glyph>
<glyph name="cedillacomb.case" format="2">
  <advance width="964"/>
  <outline>
    <contour>
      <point x="412.6923076923077" y="39.692307692307686" type="line"/>
      <point x="495.7692307692308" y="39.692307692307686" type="line"/>
      <point x="468.7692307692308" y="-71.07692307692308" type="line"/>
      <point x="517.1538461538461" y="-83.15384615384616"/>
      <point x="649.8461538461539" y="-162.3846153846154"/>
      <point x="649.8461538461539" y="-236.6923076923077" type="qcurve" smooth="yes"/>
      <point x="649.8461538461539" y="-327.076923076923"/>
      <point x="453.0769230769231" y="-456.6923076923077"/>
      <point x="295.0769230769231" y="-456.6923076923077" type="qcurve"/>
      <point x="288.6923076923077" y="-375.61538461538464" type="line"/>
      <point x="418.46153846153845" y="-372.9230769230769"/>
      <point x="540.9230769230769" y="-303.76923076923066"/>
      <point x="545.5384615384615" y="-238.6923076923077" type="qcurve" smooth="yes"/>
      <point x="549.2307692307694" y="-190.53846153846155"/>
      <point x="449.3846153846154" y="-145.69230769230765"/>
      <point x="375.4615384615385" y="-139.15384615384616" type="qcurve"/>
    </contour>
  </outline>
</glyph>
<glyph name="diagonalbarl" format="2">
  <advance width="591"/>
  <outline>
    <contour>
      <point x="79.0" y="477.3076923076923" type="line"/>
      <point x="1.2307692307692308" y="611.3846153846155" type="line"/>
      <point x="257.61538461538464" y="791.3846153846154" type="line"/>
      <point x="507.4615384615385" y="997.6153846153846" type="line"/>
      <point x="581.4615384615385" y="866.1538461538462" type="line"/>
      <point x="326.92307692307696" y="683.0769230769231" type="line"/>
    </contour>
  </outline>
</glyph>
<glyph name="diagonalbaro" format="2">
  <advance width="487"/>
  <outline>
    <contour>
      <point x="-78.0" y="-111.84615384615384" type="line"/>
      <point x="0.3076923076923084" y="85.61538461538461" type="line"/>
      <point x="16.923076923076923" y="81.0" type="line"/>
      <point x="206.53846153846152" y="579.1538461538462" type="line"/>
      <point x="298.2307692307692" y="514.4615384615386" type="line"/>
      <point x="125.07692307692308" y="53.69230769230769" type="line"/>
      <point x="143.53846153846155" y="50.0" type="line"/>
      <point x="74.61538461538461" y="-116.53846153846153" type="line"/>
    </contour>
    <contour>
      <point x="397.6923076923077" y="1132.3076923076922" type="line"/>
      <point x="555.9230769230769" y="1129.4615384615383" type="line"/>
      <point x="483.15384615384613" y="944.1538461538462" type="line"/>
      <point x="463.7692307692308" y="948.7692307692307" type="line"/>
      <point x="298.2307692307692" y="514.4615384615386" type="line"/>
      <point x="206.53846153846152" y="579.1538461538462" type="line"/>
      <point x="356.38461538461536" y="974.9230769230769" type="line"/>
      <point x="337.9230769230769" y="980.4615384615385" type="line"/>
    </contour>
  </outline>
</glyph>
<glyph name="gravecombstack.case" format="2">
  <advance width="964"/>
  <outline>
    <contour>
      <point x="605.5384615384615" y="1565.923076923077" type="line"/>
      <point x="240.23076923076923" y="1747.1538461538462" type="line"/>
      <point x="306.2307692307692" y="1856.5384615384612" type="line"/>
      <point x="640.0769230769231" y="1621.6153846153848" type="line"/>
    </contour>
  </outline>
</glyph>
<glyph name="horizontalbarH" format="2">
  <advance width="1367"/>
  <outline>
    <contour>
      <point x="1348.923076923077" y="1028.076923076923" type="line"/>
      <point x="1141.6153846153848" y="1026.2307692307693" type="line"/>
      <point x="1141.6153846153848" y="1153.1538461538457" type="line"/>
      <point x="1358.3076923076922" y="1155.0" type="line"/>
    </contour>
    <contour>
      <point x="15.538461538461538" y="1026.2307692307693" type="line"/>
      <point x="7.153846153846154" y="1153.1538461538457" type="line"/>
      <point x="230.53846153846155" y="1153.1538461538457" type="line"/>
      <point x="230.53846153846155" y="1026.2307692307693" type="line"/>
    </contour>
    <contour>
      <point x="230.53846153846155" y="1035.4615384615383" type="line"/>
      <point x="230.53846153846155" y="1143.923076923077" type="line"/>
      <point x="1141.6153846153848" y="1143.923076923077" type="line"/>
      <point x="1141.6153846153848" y="1035.4615384615383" type="line"/>
    </contour>
  </outline>
</glyph>
<glyph name="three.prop" format="2">
  <advance width="988"/>
  <outline>
    <contour>
      <point x="18.076923076923077" y="367.6923076923077" type="qcurve" smooth="yes"/>
      <point x="18.076923076923077" y="390.38461538461536" type="line"/>
      <point x="190.23076923076923" y="390.38461538461536" type="line"/>
      <point x="190.23076923076923" y="367.69230769230774" type="line" smooth="yes"/>
      <point x="190.23076923076923" y="247.6923076923077"/>
      <point x="340.53846153846155" y="118.3076923076923"/>
      <point x="465.46153846153845" y="118.3076923076923" type="qcurve" smooth="yes"/>
      <point x="590.2307692307692" y="118.3076923076923"/>
      <point x="738.5384615384615" y="247.84615384615387"/>
      <point x="738.5384615384615" y="394.7692307692308" type="qcurve" smooth="yes"/>
      <point x="738.5384615384615" y="542.0"/>
      <point x="572.3846153846155" y="687.6923076923076"/>
      <point x="430.53846153846155" y="687.6923076923076" type="qcurve" smooth="yes"/>
      <point x="322.15384615384613" y="687.6923076923076" type="line"/>
      <point x="322.15384615384613" y="830.3076923076923" type="line"/>
      <point x="421.07692307692304" y="830.3076923076923" type="line" smooth="yes"/>
      <point x="551.0769230769231" y="830.3076923076923"/>
      <point x="691.8461538461539" y="967.3076923076923"/>
      <point x="691.8461538461539" y="1091.4615384615386" type="qcurve" smooth="yes"/>
      <point x="691.8461538461539" y="1221.923076923077"/>
      <point x="569.3846153846154" y="1337.7692307692307"/>
      <point x="465.0769230769231" y="1337.7692307692307" type="qcurve" smooth="yes"/>
      <point x="360.6153846153846" y="1337.7692307692307"/>
      <point x="227.69230769230768" y="1221.3076923076924"/>
      <point x="227.69230769230768" y="1112.923076923077" type="qcurve" smooth="yes"/>
      <point x="227.69230769230768" y="1089.6153846153848" type="line"/>
      <point x="55.53846153846154" y="1089.6153846153848" type="line"/>
      <point x="55.53846153846154" y="1112.923076923077" type="line" smooth="yes"/>
      <point x="55.53846153846154" y="1267.5384615384617"/>
      <point x="286.5384615384615" y="1484.076923076923"/>
      <point x="465.15384615384613" y="1484.076923076923" type="qcurve" smooth="yes"/>
      <point x="643.4615384615385" y="1484.076923076923"/>
      <point x="869.5384615384615" y="1277.3846153846152"/>
      <point x="869.5384615384615" y="1100.6153846153845" type="qcurve" smooth="yes"/>
      <point x="869.5384615384615" y="994.9230769230769"/>
      <point x="765.5384615384615" y="812.1538461538462"/>
      <point x="656.5384615384615" y="765.6153846153846" type="qcurve"/>
      <point x="656.5384615384615" y="761.7692307692308" type="line"/>
      <point x="775.6923076923077" y="731.9230769230769"/>
      <point x="918.0769230769231" y="542.6153846153846"/>
      <point x="918.0769230769231" y="395.6923076923077" type="qcurve" smooth="yes"/>
      <point x="918.0769230769231" y="192.3076923076923"/>
      <point x="662.4615384615385" y="-28.0"/>
      <point x="465.4615384615385" y="-28.0" type="qcurve" smooth="yes"/>
      <point x="268.3076923076923" y="-28.0"/>
      <point x="18.076923076923077" y="192.23076923076923"/>
    </contour>
  </outline>
</glyph>
